<svg width="115" height="103" viewBox="0 0 115 103" fill="none" xmlns="http://www.w3.org/2000/svg">
<path d="M22.0833 0C28.4722 0 33.75 2.20616 37.9167 6.61849C42.0833 10.755 44.1667 15.9947 44.1667 22.3374C44.1667 25.6466 43.6111 29.2316 42.5 33.0924C41.6667 36.6774 40.4167 40.9518 38.75 45.9157L20.8333 103H0.833333L15.4167 43.4337C10.6944 42.0549 6.94444 39.573 4.16667 35.988C1.38889 32.1272 0 27.577 0 22.3374C0 15.7189 2.08333 10.3414 6.25 6.20481C10.4167 2.06827 15.6944 0 22.0833 0ZM92.9167 0C99.3055 0 104.583 2.20616 108.75 6.61849C112.917 10.755 115 15.9947 115 22.3374C115 25.6466 114.444 29.2316 113.333 33.0924C112.5 36.6774 111.25 40.9518 109.583 45.9157L91.6667 103H71.6667L86.25 43.4337C81.5278 42.0549 77.7778 39.573 75 35.988C72.2222 32.1272 70.8333 27.577 70.8333 22.3374C70.8333 15.7189 72.9167 10.3414 77.0833 6.20481C81.25 2.06827 86.5278 0 92.9167 0Z" fill="#CF3928" fill-opacity="0.2"/>
</svg>
